<svg width="370" height="28" viewBox="0 0 370 28" fill="none" xmlns="http://www.w3.org/2000/svg">
<path d="M10.6131 4.04395C7.36906 4.40668 4.74786 7.06209 4.43305 10.3061C4.20036 12.7151 5.19272 14.8983 6.86262 16.3218C7.38275 16.7598 7.73179 17.3553 7.86182 18.0054C7.93026 18.3339 8.19717 18.5735 8.53252 18.5735H14.3703C14.6715 18.5735 14.9384 18.375 15.0273 18.0875C15.1916 17.5469 15.5064 16.7051 15.9376 16.3424C17.4569 15.0626 18.4219 13.1463 18.4219 11.0042C18.4219 6.87046 14.8426 3.57857 10.6131 4.04395ZM9.57278 6.36402C9.57278 6.36402 6.63677 8.06814 6.56833 11.2779C6.56833 11.538 6.35617 11.7501 6.10979 11.7501H6.10295C5.84973 11.7501 5.65125 11.5243 5.6581 11.2574C5.74022 7.47272 9.00474 5.59751 9.14847 5.51538C9.36747 5.39219 9.64807 5.48116 9.76441 5.71385C9.88076 5.94654 9.79863 6.24083 9.57963 6.36402H9.57278Z" fill="white"/>
<path d="M14.5203 19.6482H8.41555C8.17601 19.6482 7.97754 19.8467 7.97754 20.0862C7.97754 20.3257 8.16917 20.5242 8.41555 20.5242H14.5203C14.7598 20.5242 14.9583 20.3326 14.9583 20.0862C14.9583 19.8398 14.7666 19.6482 14.5203 19.6482Z" fill="white"/>
<path d="M14.3088 21.2014H8.62844C8.3889 21.2014 8.19043 21.3999 8.19043 21.6394C8.19043 21.879 8.3889 22.0774 8.62844 22.0774H14.3088C14.5484 22.0774 14.7468 21.879 14.7468 21.6394C14.7468 21.3999 14.5552 21.2014 14.3088 21.2014Z" fill="white"/>
<path d="M14.0622 22.7476H8.86775C8.60084 22.7476 8.38184 22.9187 8.38184 23.1308C8.38184 23.343 8.60084 23.5141 8.86775 23.5141H10.127C10.2844 23.5141 10.4281 23.5757 10.5171 23.6715C10.6951 23.87 11.0509 24 11.4684 24C11.8859 24 12.2418 23.8631 12.4197 23.6715C12.5087 23.5688 12.6524 23.5141 12.8098 23.5141H14.0691C14.336 23.5141 14.555 23.343 14.555 23.1308C14.555 22.9187 14.336 22.7476 14.0691 22.7476H14.0622Z" fill="white"/>
<path d="M2.76295 10.9692L1.41471 10.7981C1.15465 10.7639 0.969862 10.5244 1.00408 10.2643C1.0383 10.0043 1.27784 9.81947 1.5379 9.85369L2.88614 10.0248C3.14621 10.059 3.33099 10.2985 3.29677 10.5586C3.26255 10.8187 3.02302 11.0035 2.76295 10.9692Z" fill="white"/>
<path d="M1.83855 8.06001L2.97463 8.81283C3.19363 8.95655 3.48791 8.89496 3.63164 8.67596C3.77536 8.45695 3.71376 8.16267 3.49476 8.01895L2.35868 7.26612C2.13968 7.1224 1.84539 7.18399 1.70167 7.403C1.55795 7.622 1.61954 7.91629 1.83855 8.06001Z" fill="white"/>
<path d="M3.01603 13.1997L1.72939 13.6445C1.48301 13.7267 1.20925 13.5966 1.12713 13.3503C1.045 13.1039 1.17503 12.8301 1.42141 12.748L2.70806 12.3032C2.95444 12.221 3.22819 12.3511 3.31032 12.5974C3.39244 12.8438 3.26241 13.1176 3.01603 13.1997Z" fill="white"/>
<path d="M58.5385 21.9204C57.1344 23.3073 55.3216 24.0007 53.0989 24.0007C50.8772 24.0007 49.0634 23.3073 47.6603 21.9204C46.2552 20.5345 45.5537 18.7035 45.5537 16.4293V5.34424H49.6629V16.4808C49.6629 17.5669 49.9768 18.4279 50.6057 19.0648C51.2345 19.7028 52.0653 20.0217 53.0989 20.0217C54.1325 20.0217 54.9642 19.7028 55.5931 19.0648C56.2219 18.4279 56.5358 17.5669 56.5358 16.4808V5.34424H60.6451V16.4293C60.6451 18.7035 59.9425 20.5345 58.5385 21.9204Z" fill="white"/>
<path d="M64.3135 23.6909V5.34424H68.4217V23.6909H64.3135Z" fill="white"/>
<path d="M80.7469 24.0005C78.1285 24.0005 75.8927 23.0749 74.0415 21.2227C72.1893 19.3715 71.2637 17.1357 71.2637 14.5174C71.2637 11.899 72.1893 9.66322 74.0415 7.81201C75.8927 5.95979 78.1285 5.03418 80.7469 5.03418C82.6243 5.03418 84.3211 5.49043 85.8372 6.40291C87.3533 7.3164 88.5161 8.53069 89.3256 10.0468L85.708 12.0111C84.6057 10.0125 82.9524 9.01318 80.7469 9.01318C79.2651 9.01318 78.0033 9.55623 76.9617 10.6413C75.919 11.7264 75.3981 13.0184 75.3981 14.5174C75.3981 16.0163 75.919 17.3083 76.9617 18.3934C78.0033 19.4785 79.2651 20.0216 80.7469 20.0216C82.9524 20.0216 84.6057 19.0223 85.708 17.0237L89.3256 18.988C88.5161 20.5041 87.3533 21.7183 85.8372 22.6308C84.3211 23.5443 82.6243 24.0005 80.7469 24.0005Z" fill="white"/>
<path d="M103.28 23.6909L95.8125 15.4734V23.6909H91.7295V5.34424H95.8125V13.0186L102.039 5.34424H107.078L99.8429 14.1552L108.552 23.6909H103.28Z" fill="white"/>
<path d="M34.1275 19.1304C33.5312 19.3442 32.892 19.4668 32.223 19.4668C29.098 19.4668 26.5563 16.9252 26.5563 13.8006C26.5563 10.6761 29.098 8.13445 32.223 8.13445C35.3471 8.13445 37.8887 10.6761 37.8887 13.8006C37.8887 14.1926 37.8486 14.5753 37.7724 14.945C38.2026 14.8254 38.6473 14.7409 39.1151 14.7409C40.1265 14.7409 41.0652 15.0465 41.8564 15.5601C41.9606 14.9883 42.0232 14.402 42.0232 13.8006C42.0232 8.39638 37.6273 4 32.223 4C26.8188 4 22.4219 8.39639 22.4219 13.8006C22.4219 19.2049 26.8188 23.6013 32.223 23.6013C33.3038 23.6013 34.3412 23.4185 35.3143 23.0939C34.5436 22.2062 34.0601 21.0622 34.0601 19.7969C34.0601 19.5687 34.0979 19.3507 34.1275 19.1304Z" fill="white"/>
<path d="M39.081 15.9241C36.9646 15.9241 35.2432 17.646 35.2432 19.7628C35.2432 21.8797 36.9646 23.6016 39.081 23.6016C41.1974 23.6016 42.9197 21.8797 42.9197 19.7628C42.9197 17.646 41.1974 15.9241 39.081 15.9241Z" fill="white"/>
<path d="M111.552 12.5867V10.6885C111.552 10.3669 111.812 10.1002 112.125 10.1002H126.012C126.012 10.1002 128.428 11.6297 128.344 11.8729C127.465 14.4771 126.218 16.7754 124.605 18.7756C122.647 21.2387 120.43 22.9643 117.944 23.9605C117.707 24.0547 117.44 23.9762 117.287 23.7723L115.895 21.9917C115.658 21.6936 115.773 21.2465 116.117 21.0896C119.841 19.3483 122.403 16.9951 123.794 14.0222C123.978 13.63 123.71 13.1672 123.282 13.1672H112.125C111.812 13.1672 111.552 12.9005 111.552 12.5789V12.5867ZM113.67 7.61362V5.80949C113.67 5.48789 113.93 5.22119 114.243 5.22119H125.087C125.4 5.22119 125.66 5.48789 125.66 5.80949V7.61362C125.66 7.93522 125.4 8.20192 125.087 8.20192H114.243C113.93 8.20192 113.67 7.93522 113.67 7.61362Z" fill="white"/>
<path d="M131.212 18.1956C132.443 17.0739 133.598 15.6306 134.676 13.8657C134.844 13.5912 135.196 13.4971 135.464 13.6696L137.322 14.8619C137.582 15.0267 137.674 15.3875 137.521 15.662C136.435 17.576 135.135 19.2703 133.621 20.7449C133.399 20.9646 133.04 20.9567 132.818 20.7292L131.182 19.0506C130.944 18.8075 130.967 18.4231 131.212 18.1956ZM132.107 8.92401H138.362C138.675 8.92401 138.935 8.65731 138.935 8.33571V5.08044C138.935 4.75884 139.195 4.49214 139.509 4.49214H141.711C142.025 4.49214 142.285 4.75884 142.285 5.08044V8.33571C142.285 8.65731 142.545 8.92401 142.858 8.92401H148.761C149.075 8.92401 149.335 9.19071 149.335 9.51231V11.4106C149.335 11.7322 149.075 11.9989 148.761 11.9989H142.858C142.545 11.9989 142.285 12.2656 142.285 12.5872V20.7685C142.285 22.8158 141.199 23.8433 139.019 23.8433H137.781C137.521 23.8433 137.291 23.6629 137.23 23.4119L136.657 21.2391C136.557 20.8626 136.833 20.4939 137.207 20.4939C138.155 20.4939 138.928 19.7017 138.928 18.729V12.5793C138.928 12.2577 138.668 11.991 138.354 11.991H132.099C131.786 11.991 131.526 11.7243 131.526 11.4027V9.50447C131.526 9.18286 131.786 8.91617 132.099 8.91617L132.107 8.92401ZM143.814 14.807L145.389 13.5912C145.626 13.4108 145.963 13.4343 146.162 13.6618C147.439 15.1208 148.632 16.7523 149.74 18.5565C149.909 18.831 149.832 19.1918 149.564 19.3644L147.714 20.6116C147.439 20.792 147.079 20.7057 146.911 20.4155C145.886 18.6506 144.816 17.0583 143.707 15.6228C143.508 15.3639 143.554 14.9953 143.814 14.7913V14.807ZM144.716 4.93141L145.221 4.53921C145.458 4.35879 145.787 4.39017 145.986 4.6098L147.179 5.94328C147.393 6.18645 147.377 6.56296 147.133 6.78259L146.605 7.26108C146.36 7.48071 145.993 7.44933 145.787 7.19833L144.617 5.77856C144.403 5.51971 144.449 5.12751 144.709 4.93141H144.716ZM147.599 4.56274L148.119 4.13132C148.356 3.93522 148.708 3.95875 148.914 4.20191L150.008 5.48833C150.222 5.73934 150.191 6.1237 149.939 6.33548L149.419 6.76691C149.182 6.96301 148.83 6.93947 148.624 6.69631L147.53 5.40989C147.316 5.15888 147.347 4.77453 147.599 4.56274Z" fill="white"/>
<path d="M174.77 6.938C174.998 7.274 175.244 7.67 175.508 8.126C175.772 8.582 175.988 8.972 176.156 9.296L174.698 9.908C174.518 9.548 174.308 9.152 174.068 8.72C173.828 8.276 173.588 7.88 173.348 7.532L174.77 6.938ZM177.11 6.434C177.278 6.65 177.446 6.902 177.614 7.19C177.794 7.478 177.962 7.76 178.118 8.036C178.286 8.312 178.418 8.552 178.514 8.756L177.092 9.386C176.9 9.002 176.678 8.594 176.426 8.162C176.186 7.73 175.94 7.346 175.688 7.01L177.11 6.434ZM171.368 7.298C171.356 7.382 171.338 7.52 171.314 7.712C171.29 7.904 171.266 8.108 171.242 8.324C171.218 8.528 171.206 8.708 171.206 8.864C171.206 9.224 171.206 9.62 171.206 10.052C171.206 10.484 171.206 10.916 171.206 11.348C171.206 11.768 171.206 12.152 171.206 12.5C171.206 12.74 171.206 13.076 171.206 13.508C171.206 13.94 171.206 14.426 171.206 14.966C171.206 15.506 171.206 16.07 171.206 16.658C171.206 17.234 171.206 17.798 171.206 18.35C171.206 18.89 171.206 19.382 171.206 19.826C171.206 20.258 171.206 20.6 171.206 20.852C171.206 21.368 171.05 21.776 170.738 22.076C170.438 22.388 169.97 22.544 169.334 22.544C169.01 22.544 168.68 22.538 168.344 22.526C168.008 22.514 167.678 22.496 167.354 22.472C167.03 22.448 166.712 22.418 166.4 22.382L166.184 20.15C166.568 20.222 166.94 20.276 167.3 20.312C167.672 20.348 167.966 20.366 168.182 20.366C168.422 20.366 168.59 20.318 168.686 20.222C168.782 20.114 168.836 19.946 168.848 19.718C168.848 19.61 168.848 19.376 168.848 19.016C168.86 18.656 168.866 18.23 168.866 17.738C168.866 17.246 168.866 16.724 168.866 16.172C168.866 15.62 168.866 15.092 168.866 14.588C168.866 14.084 168.866 13.646 168.866 13.274C168.866 12.902 168.866 12.644 168.866 12.5C168.866 12.284 168.866 11.96 168.866 11.528C168.866 11.084 168.866 10.616 168.866 10.124C168.866 9.632 168.866 9.212 168.866 8.864C168.866 8.624 168.848 8.342 168.812 8.018C168.776 7.682 168.74 7.442 168.704 7.298H171.368ZM162.548 10.16C162.824 10.196 163.112 10.232 163.412 10.268C163.712 10.292 164.006 10.304 164.294 10.304C164.438 10.304 164.726 10.304 165.158 10.304C165.602 10.304 166.13 10.304 166.742 10.304C167.354 10.304 168.008 10.304 168.704 10.304C169.412 10.304 170.12 10.304 170.828 10.304C171.548 10.304 172.214 10.304 172.826 10.304C173.45 10.304 173.99 10.304 174.446 10.304C174.902 10.304 175.22 10.304 175.4 10.304C175.652 10.304 175.946 10.292 176.282 10.268C176.63 10.244 176.93 10.214 177.182 10.178V12.536C176.906 12.512 176.606 12.5 176.282 12.5C175.958 12.488 175.67 12.482 175.418 12.482C175.238 12.482 174.92 12.482 174.464 12.482C174.02 12.482 173.486 12.482 172.862 12.482C172.25 12.482 171.59 12.482 170.882 12.482C170.174 12.482 169.466 12.482 168.758 12.482C168.05 12.482 167.39 12.482 166.778 12.482C166.166 12.482 165.638 12.482 165.194 12.482C164.762 12.482 164.462 12.482 164.294 12.482C164.03 12.482 163.736 12.488 163.412 12.5C163.1 12.512 162.812 12.53 162.548 12.554V10.16ZM167.138 15.038C166.934 15.446 166.688 15.884 166.4 16.352C166.112 16.82 165.8 17.288 165.464 17.756C165.14 18.224 164.822 18.662 164.51 19.07C164.198 19.466 163.916 19.796 163.664 20.06L161.72 18.728C162.02 18.452 162.326 18.128 162.638 17.756C162.962 17.372 163.274 16.97 163.574 16.55C163.886 16.13 164.168 15.71 164.42 15.29C164.684 14.87 164.912 14.468 165.104 14.084L167.138 15.038ZM174.878 14.03C175.106 14.318 175.358 14.66 175.634 15.056C175.922 15.452 176.21 15.878 176.498 16.334C176.786 16.778 177.056 17.216 177.308 17.648C177.56 18.068 177.776 18.44 177.956 18.764L175.832 19.916C175.64 19.532 175.418 19.118 175.166 18.674C174.926 18.23 174.674 17.786 174.41 17.342C174.146 16.898 173.882 16.484 173.618 16.1C173.366 15.704 173.132 15.368 172.916 15.092L174.878 14.03ZM193.814 7.532C193.802 7.784 193.784 8.06 193.76 8.36C193.748 8.648 193.742 8.972 193.742 9.332C193.742 9.644 193.742 10.022 193.742 10.466C193.742 10.91 193.742 11.354 193.742 11.798C193.742 12.23 193.742 12.596 193.742 12.896C193.742 13.856 193.694 14.696 193.598 15.416C193.514 16.136 193.382 16.766 193.202 17.306C193.022 17.846 192.8 18.326 192.536 18.746C192.284 19.154 191.99 19.544 191.654 19.916C191.258 20.348 190.802 20.738 190.286 21.086C189.77 21.422 189.248 21.704 188.72 21.932C188.204 22.172 187.724 22.364 187.28 22.508L185.39 20.528C186.29 20.324 187.1 20.042 187.82 19.682C188.552 19.31 189.188 18.836 189.728 18.26C190.04 17.912 190.292 17.564 190.484 17.216C190.676 16.868 190.82 16.484 190.916 16.064C191.024 15.632 191.096 15.146 191.132 14.606C191.18 14.066 191.204 13.448 191.204 12.752C191.204 12.44 191.204 12.068 191.204 11.636C191.204 11.204 191.204 10.778 191.204 10.358C191.204 9.938 191.204 9.596 191.204 9.332C191.204 8.972 191.192 8.648 191.168 8.36C191.156 8.06 191.132 7.784 191.096 7.532H193.814ZM185.462 7.676C185.45 7.892 185.438 8.108 185.426 8.324C185.414 8.528 185.408 8.774 185.408 9.062C185.408 9.194 185.408 9.41 185.408 9.71C185.408 10.01 185.408 10.364 185.408 10.772C185.408 11.168 185.408 11.588 185.408 12.032C185.408 12.464 185.408 12.884 185.408 13.292C185.408 13.7 185.408 14.072 185.408 14.408C185.408 14.732 185.408 14.978 185.408 15.146C185.408 15.374 185.414 15.638 185.426 15.938C185.438 16.238 185.45 16.496 185.462 16.712H182.852C182.864 16.544 182.882 16.304 182.906 15.992C182.93 15.68 182.942 15.392 182.942 15.128C182.942 14.96 182.942 14.714 182.942 14.39C182.942 14.066 182.942 13.7 182.942 13.292C182.942 12.872 182.942 12.446 182.942 12.014C182.942 11.57 182.942 11.15 182.942 10.754C182.942 10.358 182.942 10.01 182.942 9.71C182.942 9.41 182.942 9.194 182.942 9.062C182.942 8.894 182.936 8.678 182.924 8.414C182.912 8.138 182.894 7.892 182.87 7.676H185.462ZM211.382 12.914C211.334 13.034 211.298 13.166 211.274 13.31C211.25 13.454 211.226 13.574 211.202 13.67C211.166 13.922 211.112 14.27 211.04 14.714C210.98 15.158 210.908 15.65 210.824 16.19C210.752 16.718 210.674 17.252 210.59 17.792C210.506 18.332 210.428 18.824 210.356 19.268C210.296 19.712 210.242 20.066 210.194 20.33H207.728C207.776 20.078 207.83 19.76 207.89 19.376C207.95 18.98 208.016 18.554 208.088 18.098C208.172 17.63 208.244 17.162 208.304 16.694C208.376 16.226 208.436 15.794 208.484 15.398C208.532 15.002 208.562 14.684 208.574 14.444C208.406 14.444 208.148 14.444 207.8 14.444C207.464 14.444 207.08 14.444 206.648 14.444C206.228 14.444 205.808 14.444 205.388 14.444C204.98 14.444 204.626 14.444 204.326 14.444C204.026 14.444 203.822 14.444 203.714 14.444C203.426 14.444 203.114 14.456 202.778 14.48C202.454 14.492 202.166 14.51 201.914 14.534V12.158C202.07 12.182 202.256 12.2 202.472 12.212C202.688 12.224 202.904 12.236 203.12 12.248C203.348 12.26 203.54 12.266 203.696 12.266C203.876 12.266 204.122 12.266 204.434 12.266C204.746 12.266 205.088 12.266 205.46 12.266C205.832 12.266 206.204 12.266 206.576 12.266C206.948 12.266 207.284 12.266 207.584 12.266C207.896 12.266 208.136 12.266 208.304 12.266C208.436 12.266 208.592 12.26 208.772 12.248C208.952 12.236 209.126 12.218 209.294 12.194C209.462 12.158 209.576 12.116 209.636 12.068L211.382 12.914ZM200.258 19.448C200.498 19.472 200.774 19.496 201.086 19.52C201.41 19.532 201.728 19.538 202.04 19.538C202.22 19.538 202.55 19.538 203.03 19.538C203.522 19.538 204.098 19.538 204.758 19.538C205.43 19.538 206.12 19.538 206.828 19.538C207.548 19.538 208.232 19.538 208.88 19.538C209.54 19.538 210.104 19.538 210.572 19.538C211.04 19.538 211.34 19.538 211.472 19.538C211.7 19.538 211.994 19.532 212.354 19.52C212.714 19.508 213.008 19.49 213.236 19.466V21.788C213.116 21.776 212.948 21.764 212.732 21.752C212.528 21.752 212.312 21.746 212.084 21.734C211.868 21.734 211.676 21.734 211.508 21.734C211.364 21.734 211.052 21.734 210.572 21.734C210.092 21.734 209.522 21.734 208.862 21.734C208.202 21.734 207.506 21.734 206.774 21.734C206.054 21.734 205.358 21.734 204.686 21.734C204.026 21.734 203.456 21.734 202.976 21.734C202.496 21.734 202.184 21.734 202.04 21.734C201.728 21.734 201.44 21.734 201.176 21.734C200.912 21.746 200.606 21.764 200.258 21.788V19.448ZM217.736 13.166C217.952 13.178 218.228 13.196 218.564 13.22C218.9 13.232 219.248 13.244 219.608 13.256C219.98 13.268 220.322 13.274 220.634 13.274C220.934 13.274 221.306 13.274 221.75 13.274C222.194 13.274 222.674 13.274 223.19 13.274C223.718 13.274 224.258 13.274 224.81 13.274C225.374 13.274 225.932 13.274 226.484 13.274C227.036 13.274 227.558 13.274 228.05 13.274C228.542 13.274 228.98 13.274 229.364 13.274C229.76 13.274 230.072 13.274 230.3 13.274C230.72 13.274 231.116 13.262 231.488 13.238C231.86 13.202 232.166 13.178 232.406 13.166V15.992C232.202 15.98 231.896 15.962 231.488 15.938C231.08 15.914 230.684 15.902 230.3 15.902C230.072 15.902 229.76 15.902 229.364 15.902C228.968 15.902 228.524 15.902 228.032 15.902C227.54 15.902 227.018 15.902 226.466 15.902C225.926 15.902 225.374 15.902 224.81 15.902C224.246 15.902 223.7 15.902 223.172 15.902C222.656 15.902 222.176 15.902 221.732 15.902C221.3 15.902 220.934 15.902 220.634 15.902C220.118 15.902 219.59 15.914 219.05 15.938C218.51 15.95 218.072 15.968 217.736 15.992V13.166ZM243.885 7.928C243.765 8.192 243.639 8.492 243.507 8.828C243.375 9.152 243.243 9.518 243.111 9.926C243.003 10.262 242.865 10.694 242.697 11.222C242.529 11.738 242.343 12.308 242.139 12.932C241.935 13.544 241.719 14.18 241.491 14.84C241.275 15.488 241.065 16.118 240.861 16.73C240.657 17.342 240.465 17.9 240.285 18.404C240.105 18.896 239.949 19.298 239.817 19.61L237.153 19.7C237.321 19.316 237.507 18.848 237.711 18.296C237.915 17.744 238.131 17.144 238.359 16.496C238.587 15.836 238.809 15.164 239.025 14.48C239.253 13.796 239.463 13.136 239.655 12.5C239.859 11.864 240.039 11.276 240.195 10.736C240.363 10.196 240.495 9.758 240.591 9.422C240.711 8.954 240.801 8.57 240.861 8.27C240.933 7.958 240.987 7.646 241.023 7.334L243.885 7.928ZM247.107 13.742C247.431 14.222 247.779 14.786 248.151 15.434C248.523 16.082 248.889 16.76 249.249 17.468C249.621 18.164 249.963 18.836 250.275 19.484C250.587 20.132 250.845 20.714 251.049 21.23L248.619 22.31C248.415 21.758 248.163 21.134 247.863 20.438C247.575 19.742 247.257 19.034 246.909 18.314C246.573 17.594 246.225 16.916 245.865 16.28C245.517 15.632 245.181 15.092 244.857 14.66L247.107 13.742ZM236.991 18.908C237.399 18.884 237.891 18.854 238.467 18.818C239.055 18.77 239.685 18.716 240.357 18.656C241.029 18.584 241.713 18.512 242.409 18.44C243.117 18.368 243.807 18.296 244.479 18.224C245.163 18.14 245.799 18.062 246.387 17.99C246.975 17.918 247.473 17.852 247.881 17.792L248.421 20.096C247.977 20.156 247.443 20.222 246.819 20.294C246.207 20.366 245.547 20.444 244.839 20.528C244.131 20.6 243.411 20.678 242.679 20.762C241.947 20.846 241.233 20.924 240.537 20.996C239.841 21.068 239.199 21.134 238.611 21.194C238.023 21.242 237.525 21.29 237.117 21.338C236.889 21.362 236.619 21.398 236.307 21.446C236.007 21.482 235.713 21.518 235.425 21.554L235.011 18.926C235.311 18.926 235.641 18.926 236.001 18.926C236.373 18.926 236.703 18.92 236.991 18.908ZM261.831 7.064C261.807 7.268 261.783 7.532 261.759 7.856C261.747 8.18 261.735 8.45 261.723 8.666C261.675 10.454 261.525 12.044 261.273 13.436C261.021 14.816 260.661 16.04 260.193 17.108C259.725 18.176 259.131 19.136 258.411 19.988C257.691 20.828 256.833 21.602 255.837 22.31L253.749 20.618C254.121 20.402 254.517 20.15 254.937 19.862C255.369 19.562 255.759 19.226 256.107 18.854C256.695 18.278 257.193 17.648 257.601 16.964C258.009 16.268 258.333 15.512 258.573 14.696C258.825 13.868 259.011 12.962 259.131 11.978C259.251 10.994 259.311 9.908 259.311 8.72C259.311 8.588 259.305 8.42 259.293 8.216C259.281 8 259.263 7.79 259.239 7.586C259.227 7.382 259.209 7.208 259.185 7.064H261.831ZM267.951 10.916C267.927 11.06 267.897 11.228 267.861 11.42C267.837 11.612 267.825 11.762 267.825 11.87C267.813 12.254 267.789 12.746 267.753 13.346C267.729 13.946 267.687 14.594 267.627 15.29C267.579 15.974 267.513 16.658 267.429 17.342C267.357 18.026 267.267 18.662 267.159 19.25C267.051 19.826 266.919 20.3 266.763 20.672C266.571 21.128 266.289 21.47 265.917 21.698C265.557 21.938 265.065 22.058 264.441 22.058C263.925 22.058 263.409 22.04 262.893 22.004C262.377 21.98 261.897 21.95 261.453 21.914L261.183 19.502C261.627 19.586 262.071 19.652 262.515 19.7C262.959 19.736 263.355 19.754 263.703 19.754C264.003 19.754 264.225 19.706 264.369 19.61C264.513 19.502 264.633 19.34 264.729 19.124C264.825 18.884 264.915 18.566 264.999 18.17C265.083 17.774 265.155 17.33 265.215 16.838C265.275 16.346 265.323 15.836 265.359 15.308C265.407 14.78 265.437 14.27 265.449 13.778C265.473 13.274 265.485 12.83 265.485 12.446H256.701C256.401 12.446 256.029 12.452 255.585 12.464C255.141 12.464 254.721 12.482 254.325 12.518V10.16C254.709 10.196 255.117 10.226 255.549 10.25C255.981 10.274 256.365 10.286 256.701 10.286H265.035C265.263 10.286 265.491 10.274 265.719 10.25C265.959 10.226 266.181 10.196 266.385 10.16L267.951 10.916ZM272.271 13.166C272.487 13.178 272.763 13.196 273.099 13.22C273.435 13.232 273.783 13.244 274.143 13.256C274.515 13.268 274.857 13.274 275.169 13.274C275.469 13.274 275.841 13.274 276.285 13.274C276.729 13.274 277.209 13.274 277.725 13.274C278.253 13.274 278.793 13.274 279.345 13.274C279.909 13.274 280.467 13.274 281.019 13.274C281.571 13.274 282.093 13.274 282.585 13.274C283.077 13.274 283.515 13.274 283.899 13.274C284.295 13.274 284.607 13.274 284.835 13.274C285.255 13.274 285.651 13.262 286.023 13.238C286.395 13.202 286.701 13.178 286.941 13.166V15.992C286.737 15.98 286.431 15.962 286.023 15.938C285.615 15.914 285.219 15.902 284.835 15.902C284.607 15.902 284.295 15.902 283.899 15.902C283.503 15.902 283.059 15.902 282.567 15.902C282.075 15.902 281.553 15.902 281.001 15.902C280.461 15.902 279.909 15.902 279.345 15.902C278.781 15.902 278.235 15.902 277.707 15.902C277.191 15.902 276.711 15.902 276.267 15.902C275.835 15.902 275.469 15.902 275.169 15.902C274.653 15.902 274.125 15.914 273.585 15.938C273.045 15.95 272.607 15.968 272.271 15.992V13.166ZM301.565 6.326C301.721 6.554 301.883 6.812 302.051 7.1C302.231 7.388 302.399 7.676 302.555 7.964C302.711 8.24 302.843 8.486 302.951 8.702L301.439 9.332C301.319 9.092 301.181 8.834 301.025 8.558C300.881 8.282 300.725 8.006 300.557 7.73C300.401 7.442 300.245 7.178 300.089 6.938L301.565 6.326ZM304.085 5.876C304.241 6.092 304.409 6.344 304.589 6.632C304.769 6.92 304.943 7.208 305.111 7.496C305.279 7.784 305.417 8.036 305.525 8.252L304.031 8.9C303.827 8.528 303.593 8.114 303.329 7.658C303.077 7.202 302.831 6.806 302.591 6.47L304.085 5.876ZM303.437 9.728C303.353 9.896 303.275 10.1 303.203 10.34C303.143 10.568 303.089 10.778 303.041 10.97C302.933 11.414 302.801 11.912 302.645 12.464C302.501 13.004 302.315 13.568 302.087 14.156C301.871 14.744 301.613 15.326 301.313 15.902C301.025 16.478 300.695 17.018 300.323 17.522C299.783 18.242 299.153 18.914 298.433 19.538C297.725 20.162 296.921 20.726 296.021 21.23C295.133 21.734 294.155 22.16 293.087 22.508L291.125 20.348C292.325 20.06 293.357 19.706 294.221 19.286C295.097 18.866 295.853 18.386 296.489 17.846C297.125 17.306 297.689 16.73 298.181 16.118C298.577 15.614 298.919 15.068 299.207 14.48C299.495 13.892 299.729 13.304 299.909 12.716C300.089 12.116 300.215 11.558 300.287 11.042C300.119 11.042 299.825 11.042 299.405 11.042C298.985 11.042 298.499 11.042 297.947 11.042C297.395 11.042 296.813 11.042 296.201 11.042C295.589 11.042 295.001 11.042 294.437 11.042C293.873 11.042 293.363 11.042 292.907 11.042C292.463 11.042 292.133 11.042 291.917 11.042C291.497 11.042 291.095 11.048 290.711 11.06C290.327 11.072 290.015 11.09 289.775 11.114V8.576C289.955 8.6 290.171 8.624 290.423 8.648C290.687 8.672 290.951 8.69 291.215 8.702C291.491 8.714 291.725 8.72 291.917 8.72C292.109 8.72 292.385 8.72 292.745 8.72C293.105 8.72 293.513 8.72 293.969 8.72C294.437 8.72 294.923 8.72 295.427 8.72C295.943 8.72 296.453 8.72 296.957 8.72C297.473 8.72 297.953 8.72 298.397 8.72C298.841 8.72 299.225 8.72 299.549 8.72C299.873 8.72 300.107 8.72 300.251 8.72C300.431 8.72 300.647 8.714 300.899 8.702C301.163 8.69 301.415 8.648 301.655 8.576L303.437 9.728Z" fill="white"/>
</svg>
