<svg width="52" height="52"  fill="none" xmlns="http://www.w3.org/2000/svg">
<path d="M26.084 26.7502H27.9173V28.5835H26.084V26.7502ZM26.084 19.4168H27.9173V24.9168H26.084V19.4168ZM26.9915 14.8335C21.9315 14.8335 17.834 18.9402 17.834 24.0002C17.834 29.0602 21.9315 33.1668 26.9915 33.1668C32.0607 33.1668 36.1673 29.0602 36.1673 24.0002C36.1673 18.9402 32.0607 14.8335 26.9915 14.8335ZM27.0007 31.3335C22.949 31.3335 19.6673 28.0518 19.6673 24.0002C19.6673 19.9485 22.949 16.6668 27.0007 16.6668C31.0523 16.6668 34.334 19.9485 34.334 24.0002C34.334 28.0518 31.0523 31.3335 27.0007 31.3335Z" fill="#D32F2F"/>

</svg>
