<svg width="292" height="52" viewBox="0 0 292 52" fill="none" xmlns="http://www.w3.org/2000/svg">
<rect width="292" height="52" rx="4" fill="#FDEDED"/>
<path d="M26.084 26.7502H27.9173V28.5835H26.084V26.7502ZM26.084 19.4168H27.9173V24.9168H26.084V19.4168ZM26.9915 14.8335C21.9315 14.8335 17.834 18.9402 17.834 24.0002C17.834 29.0602 21.9315 33.1668 26.9915 33.1668C32.0607 33.1668 36.1673 29.0602 36.1673 24.0002C36.1673 18.9402 32.0607 14.8335 26.9915 14.8335ZM27.0007 31.3335C22.949 31.3335 19.6673 28.0518 19.6673 24.0002C19.6673 19.9485 22.949 16.6668 27.0007 16.6668C31.0523 16.6668 34.334 19.9485 34.334 24.0002C34.334 28.0518 31.0523 31.3335 27.0007 31.3335Z" fill="#D32F2F"/>
<path d="M62.08 17.704C62.464 18.264 63.04 19.208 63.36 19.816L62.464 20.216C62.144 19.56 61.6 18.648 61.2 18.072L62.08 17.704ZM64.144 17.304C64.528 17.848 65.12 18.792 65.456 19.416L64.56 19.8C64.208 19.144 63.696 18.216 63.264 17.672L64.144 17.304ZM63.52 20.584C63.424 20.808 63.344 21.08 63.28 21.384C62.944 23.064 62.16 25.656 60.896 27.288C59.44 29.176 57.536 30.648 54.608 31.576L53.52 30.376C56.608 29.592 58.416 28.232 59.744 26.52C60.88 25.08 61.632 22.84 61.84 21.304C60.928 21.304 54.576 21.304 53.664 21.304C53.024 21.304 52.48 21.336 52.064 21.368V19.944C52.512 19.992 53.136 20.056 53.664 20.056C54.576 20.056 60.96 20.056 61.696 20.056C61.936 20.056 62.256 20.04 62.544 19.96L63.52 20.584ZM73.878 21.8C74.15 22.44 74.934 24.552 75.126 25.24L73.942 25.672C73.766 24.936 73.03 22.904 72.694 22.2L73.878 21.8ZM79.67 22.696C79.558 23.016 79.478 23.272 79.414 23.48C78.998 25.24 78.294 26.968 77.158 28.408C75.67 30.28 73.718 31.528 71.942 32.2L70.886 31.128C72.726 30.584 74.774 29.368 76.086 27.736C77.222 26.344 78.038 24.296 78.294 22.248L79.67 22.696ZM70.15 22.6C70.47 23.272 71.318 25.368 71.606 26.216L70.406 26.664C70.15 25.832 69.286 23.608 68.966 23.048L70.15 22.6ZM96.236 21C96.108 21.224 95.948 21.592 95.868 21.848C95.436 23.464 94.46 25.624 93.036 27.368C91.58 29.144 89.66 30.6 86.668 31.72L85.5 30.664C88.444 29.8 90.428 28.36 91.9 26.648C93.132 25.192 94.124 23.112 94.444 21.656H88.524L89.036 20.504C89.676 20.504 93.628 20.504 94.124 20.504C94.556 20.504 94.924 20.456 95.18 20.36L96.236 21ZM90.876 18.584C90.62 19 90.332 19.544 90.172 19.832C89.228 21.608 87.564 23.896 84.988 25.592L83.868 24.776C86.636 23.128 88.204 20.792 88.908 19.368C89.068 19.08 89.308 18.504 89.404 18.088L90.876 18.584ZM113.298 20.856C113.138 21.032 112.994 21.208 112.898 21.352C111.698 23.32 109.49 26.136 106.658 28.184L105.666 27.288C108.226 25.512 110.29 22.92 111.138 21.4C109.698 21.4 102.642 21.4 101.73 21.4C101.09 21.4 100.402 21.448 100.098 21.48V20.056C100.53 20.12 101.17 20.168 101.73 20.168C102.546 20.168 109.666 20.168 111.266 20.168C111.698 20.168 112.066 20.136 112.29 20.056L113.298 20.856ZM105.762 28.456C104.802 27.496 102.962 25.912 102.114 25.304L103.138 24.472C103.874 25 105.73 26.52 106.882 27.64C107.89 28.648 109.138 29.96 109.826 30.792L108.658 31.72C108.066 30.904 106.786 29.496 105.762 28.456ZM116.216 24.072C116.712 24.12 117.544 24.168 118.456 24.168C119.624 24.168 126.04 24.168 127.224 24.168C128.024 24.168 128.584 24.104 128.952 24.072V25.64C128.616 25.624 127.944 25.576 127.24 25.576C126.024 25.576 119.64 25.576 118.456 25.576C117.576 25.576 116.728 25.608 116.216 25.64V24.072ZM144.686 21C144.558 21.224 144.398 21.592 144.318 21.848C143.886 23.464 142.91 25.624 141.486 27.368C140.03 29.144 138.11 30.6 135.118 31.72L133.95 30.664C136.894 29.8 138.878 28.36 140.35 26.648C141.582 25.192 142.574 23.112 142.894 21.656H136.974L137.486 20.504C138.126 20.504 142.078 20.504 142.574 20.504C143.006 20.504 143.374 20.456 143.63 20.36L144.686 21ZM139.326 18.584C139.07 19 138.782 19.544 138.622 19.832C137.678 21.608 136.014 23.896 133.438 25.592L132.318 24.776C135.086 23.128 136.654 20.792 137.358 19.368C137.518 19.08 137.758 18.504 137.854 18.088L139.326 18.584ZM153.268 21.544C154.18 21.64 155.044 21.688 155.988 21.688C157.908 21.688 159.876 21.544 161.492 21.208V22.44C159.796 22.728 157.844 22.856 155.972 22.856C155.044 22.856 154.212 22.824 153.284 22.76L153.268 21.544ZM158.868 18.68C158.82 19 158.788 19.336 158.772 19.64C158.74 20.232 158.724 21.368 158.724 22.312C158.724 24.776 158.964 27.272 158.964 28.92C158.964 30.232 158.356 31.512 156.196 31.512C154.052 31.512 152.884 30.648 152.884 29.208C152.884 27.864 154.068 26.808 156.18 26.808C158.868 26.808 160.74 28.168 162.084 29.384L161.396 30.44C159.716 28.872 158.1 27.784 156.068 27.784C154.868 27.784 154.036 28.312 154.036 29.08C154.036 29.912 154.82 30.344 155.988 30.344C157.332 30.344 157.716 29.672 157.716 28.6C157.716 27.448 157.508 24.456 157.508 22.344C157.508 21.24 157.492 20.232 157.492 19.672C157.492 19.384 157.476 18.968 157.428 18.68H158.868ZM150.98 18.792C150.884 19.048 150.756 19.576 150.692 19.864C150.372 21.352 149.892 24.52 149.892 26.312C149.892 27.096 149.94 27.768 150.052 28.552C150.308 27.816 150.708 26.84 150.98 26.184L151.636 26.696C151.236 27.816 150.644 29.448 150.484 30.232C150.436 30.456 150.404 30.776 150.42 30.952C150.436 31.112 150.452 31.352 150.468 31.512L149.332 31.608C149.028 30.456 148.724 28.696 148.724 26.536C148.724 24.184 149.268 21.128 149.46 19.816C149.524 19.432 149.556 19.016 149.572 18.664L150.98 18.792ZM166.12 24.4609H167.245C167.683 24.4609 168.045 24.3854 168.331 24.2344C168.623 24.0833 168.839 23.875 168.98 23.6094C169.12 23.3438 169.191 23.0391 169.191 22.6953C169.191 22.3359 169.126 22.0286 168.995 21.7734C168.87 21.513 168.678 21.3125 168.417 21.1719C168.162 21.0312 167.836 20.9609 167.441 20.9609C167.107 20.9609 166.805 21.0286 166.534 21.1641C166.269 21.2943 166.058 21.4818 165.902 21.7266C165.745 21.9661 165.667 22.2526 165.667 22.5859H163.777C163.777 21.9818 163.935 21.4453 164.253 20.9766C164.571 20.5078 165.003 20.1406 165.55 19.875C166.102 19.6042 166.722 19.4688 167.409 19.4688C168.144 19.4688 168.784 19.5911 169.331 19.8359C169.883 20.0755 170.313 20.4349 170.62 20.9141C170.928 21.3932 171.081 21.987 171.081 22.6953C171.081 23.0182 171.006 23.3464 170.855 23.6797C170.704 24.013 170.48 24.3177 170.183 24.5938C169.886 24.8646 169.516 25.0859 169.073 25.2578C168.631 25.4245 168.118 25.5078 167.534 25.5078H166.12V24.4609ZM166.12 25.9297V24.8984H167.534C168.201 24.8984 168.769 24.9766 169.238 25.1328C169.711 25.2891 170.097 25.5052 170.394 25.7812C170.691 26.0521 170.907 26.362 171.042 26.7109C171.183 27.0599 171.253 27.4297 171.253 27.8203C171.253 28.3516 171.157 28.8255 170.964 29.2422C170.777 29.6536 170.508 30.0026 170.159 30.2891C169.81 30.5755 169.402 30.7917 168.933 30.9375C168.469 31.0833 167.964 31.1562 167.417 31.1562C166.928 31.1562 166.459 31.0885 166.011 30.9531C165.563 30.8177 165.162 30.6172 164.808 30.3516C164.454 30.0807 164.172 29.7448 163.964 29.3438C163.761 28.9375 163.659 28.4688 163.659 27.9375H165.542C165.542 28.276 165.62 28.5755 165.777 28.8359C165.938 29.0911 166.162 29.2917 166.448 29.4375C166.74 29.5833 167.073 29.6562 167.448 29.6562C167.844 29.6562 168.185 29.5859 168.472 29.4453C168.758 29.3047 168.977 29.0964 169.128 28.8203C169.284 28.5443 169.363 28.2109 169.363 27.8203C169.363 27.3776 169.277 27.0182 169.105 26.7422C168.933 26.4661 168.688 26.263 168.37 26.1328C168.053 25.9974 167.678 25.9297 167.245 25.9297H166.12ZM181.958 17.768H183.158V32.28H181.958V17.768ZM179.19 18.376L180.342 18.6C179.91 20.84 179.174 23.032 178.262 24.456C178.022 24.28 177.526 23.992 177.222 23.864C178.15 22.52 178.822 20.456 179.19 18.376ZM179.35 20.84H186.822V22.024H179.046L179.35 20.84ZM177.35 25.544H187.526V26.728H177.35V25.544ZM176.566 17.624L177.702 17.976C176.694 20.68 175.142 23.384 173.478 25.192C173.366 24.92 173.014 24.296 172.79 24.008C174.294 22.456 175.718 20.056 176.566 17.624ZM174.95 21.752L176.086 20.616L176.102 20.632V32.264H174.95V21.752ZM195.228 18.584C195.164 18.872 195.1 19.224 195.036 19.528C194.924 20.104 194.716 21.416 194.492 22.408C193.948 24.664 192.812 28.648 191.004 31.56L189.692 31.048C191.516 28.6 192.796 24.328 193.228 22.376C193.532 21.096 193.74 19.656 193.74 18.424L195.228 18.584ZM200.732 20.424C201.724 21.72 203.116 24.632 203.66 26.104L202.412 26.696C201.948 25.064 200.684 22.28 199.564 20.952L200.732 20.424ZM189.468 22.088C189.964 22.12 190.38 22.104 190.892 22.088C192.092 22.056 195.34 21.704 196.428 21.704C197.852 21.704 199.02 22.248 199.02 24.408C199.02 26.312 198.764 28.856 198.092 30.184C197.596 31.256 196.796 31.528 195.756 31.528C195.148 31.528 194.38 31.416 193.884 31.288L193.66 29.96C194.332 30.168 195.18 30.28 195.628 30.28C196.22 30.28 196.7 30.152 197.02 29.464C197.532 28.376 197.788 26.296 197.788 24.568C197.788 23.096 197.116 22.824 196.092 22.824C195.02 22.824 192.012 23.192 191.036 23.288C190.668 23.336 190.012 23.416 189.596 23.48L189.468 22.088ZM200.908 18.104C201.308 18.68 201.884 19.656 202.22 20.312L201.356 20.696C201.036 20.04 200.492 19.08 200.044 18.472L200.908 18.104ZM202.668 17.464C203.1 18.056 203.708 19.064 204.028 19.656L203.148 20.04C202.812 19.336 202.284 18.424 201.82 17.832L202.668 17.464ZM212.114 22.744H218.69V23.944H212.114V22.744ZM205.41 30.328H219.778V31.528H205.41V30.328ZM211.426 17.8H212.69V30.968H211.426V17.8ZM228.536 21.304H234.504V22.312H228.536V21.304ZM226.04 30.888C227.512 30.632 229.832 30.168 232.072 29.72L232.152 30.776C230.136 31.24 227.992 31.704 226.44 32.056L226.04 30.888ZM227.848 18.28H229.016V30.984H227.848V18.28ZM228.536 18.28H235.064V25.384H228.536V24.328H233.896V19.336H228.536V18.28ZM231.624 24.696C232.312 27.688 233.768 30.184 236.152 31.24C235.88 31.48 235.528 31.928 235.352 32.232C232.856 30.968 231.368 28.264 230.632 24.888L231.624 24.696ZM234.808 25.752L235.752 26.44C234.856 27.272 233.72 28.168 232.824 28.76L232.072 28.152C232.936 27.528 234.136 26.52 234.808 25.752ZM222.04 18.264H226.136V19.352H223.176V32.296H222.04V18.264ZM225.784 18.264H226.008L226.184 18.216L227 18.712C226.488 20.04 225.816 21.688 225.224 22.952C226.52 24.28 226.824 25.416 226.824 26.408C226.824 27.288 226.616 27.944 226.136 28.28C225.896 28.44 225.592 28.536 225.256 28.568C224.888 28.616 224.44 28.616 224.04 28.584C224.024 28.296 223.928 27.816 223.736 27.496C224.152 27.544 224.504 27.544 224.792 27.528C225 27.512 225.192 27.464 225.352 27.368C225.624 27.192 225.72 26.776 225.704 26.28C225.704 25.4 225.368 24.344 224.12 23.096C224.76 21.64 225.416 19.704 225.784 18.6V18.264ZM238.142 20.472C238.75 20.456 239.262 20.424 239.582 20.392C240.606 20.28 243.63 19.992 246.574 19.736C248.334 19.592 249.822 19.496 250.894 19.464L250.91 20.744C249.982 20.728 248.59 20.76 247.774 20.984C245.486 21.72 244.094 24.168 244.094 26.056C244.094 29.176 247.022 30.184 249.614 30.28L249.15 31.592C246.19 31.48 242.83 29.912 242.83 26.328C242.83 23.848 244.35 21.8 245.806 20.936C244.094 21.112 240.014 21.512 238.286 21.88L238.142 20.472ZM248.59 22.696C248.958 23.224 249.566 24.216 249.918 24.936L249.086 25.304C248.718 24.536 248.27 23.72 247.79 23.048L248.59 22.696ZM250.334 22.024C250.734 22.552 251.358 23.528 251.726 24.232L250.91 24.632C250.526 23.864 250.046 23.064 249.55 22.392L250.334 22.024ZM263.076 18.328C263.044 18.52 262.996 19.144 262.996 19.336C262.948 20.376 262.98 23.464 262.996 24.744L261.78 24.12C261.78 23.416 261.764 20.232 261.716 19.352C261.684 18.92 261.636 18.472 261.604 18.328H263.076ZM254.564 20.568C256.74 20.536 260.74 20.392 263.204 20.392C265.156 20.392 267.14 20.392 267.892 20.408L267.876 21.592C266.98 21.544 265.54 21.512 263.188 21.512C260.436 21.512 257.012 21.624 254.596 21.8L254.564 20.568ZM262.964 25.208C262.964 27.352 261.972 28.424 260.516 28.424C259.172 28.424 257.876 27.48 257.876 25.736C257.876 24.152 259.188 22.968 260.708 22.968C262.564 22.968 263.508 24.344 263.508 26.184C263.508 28.36 262.452 30.76 258.74 31.864L257.668 30.824C260.58 30.136 262.276 28.712 262.276 26.072C262.276 24.632 261.572 24.024 260.708 24.024C259.86 24.024 259.076 24.68 259.076 25.72C259.076 26.728 259.828 27.304 260.708 27.304C261.7 27.304 262.34 26.472 262.084 24.76L262.964 25.208Z" fill="#5F2120"/>
</svg>
