<svg width="131" height="29" viewBox="0 0 131 29" fill="none" xmlns="http://www.w3.org/2000/svg">
<rect x="0.5" y="0.5" width="130" height="28" rx="3.5" fill="#F3F3F3"/>
<rect x="0.5" y="0.5" width="130" height="28" rx="3.5" stroke="#143867"/>
<path d="M8 7.5C8 6.39543 8.89543 5.5 10 5.5H24C25.1046 5.5 26 6.39543 26 7.5V10H8V7.5Z" fill="#143867"/>
<mask id="path-3-inside-1_2571_22827" fill="white">
<path d="M8 10H26V21.5C26 22.6046 25.1046 23.5 24 23.5H10C8.89543 23.5 8 22.6046 8 21.5V10Z"/>
</mask>
<path d="M8 10H26V21.5C26 22.6046 25.1046 23.5 24 23.5H10C8.89543 23.5 8 22.6046 8 21.5V10Z" fill="white"/>
<path d="M8 10H26H8ZM27 21.5C27 23.1569 25.6569 24.5 24 24.5H10C8.34315 24.5 7 23.1569 7 21.5H9C9 22.0523 9.44772 22.5 10 22.5H24C24.5523 22.5 25 22.0523 25 21.5H27ZM10 24.5C8.34315 24.5 7 23.1569 7 21.5V10H9V21.5C9 22.0523 9.44772 22.5 10 22.5V24.5ZM27 10V21.5C27 23.1569 25.6569 24.5 24 24.5V22.5C24.5523 22.5 25 22.0523 25 21.5V10H27Z" fill="#ABADB3" mask="url(#path-3-inside-1_2571_22827)"/>
<path d="M38.787 9.834C38.735 10.185 38.709 10.562 38.722 10.913C38.735 12.356 38.826 16.893 38.839 19.324C38.852 20.013 38.436 20.377 37.656 20.377C36.993 20.377 36.226 20.338 35.576 20.299L35.485 19.22C36.109 19.324 36.837 19.376 37.331 19.376C37.695 19.376 37.812 19.207 37.812 18.856C37.812 16.997 37.76 12.356 37.695 10.913C37.669 10.419 37.643 10.107 37.591 9.834H38.787ZM31.806 12.109C32.183 12.148 32.612 12.174 33.002 12.174C33.691 12.174 40.126 12.174 40.789 12.174C41.127 12.174 41.634 12.135 41.894 12.096V13.201C41.582 13.188 41.14 13.162 40.815 13.162C40.243 13.162 33.613 13.162 33.028 13.162C32.586 13.162 32.222 13.188 31.806 13.214V12.109ZM31.338 18.18C34.081 16.828 36.486 14.553 37.448 12.967H37.968L37.981 13.838C36.993 15.385 34.575 17.699 32.079 19.025L31.338 18.18ZM53.945 10.666C53.945 11.147 54.322 11.524 54.803 11.524C55.271 11.524 55.661 11.147 55.661 10.666C55.661 10.198 55.271 9.808 54.803 9.808C54.322 9.808 53.945 10.198 53.945 10.666ZM53.347 10.666C53.347 9.86 53.997 9.21 54.803 9.21C55.609 9.21 56.259 9.86 56.259 10.666C56.259 11.472 55.609 12.122 54.803 12.122C53.997 12.122 53.347 11.472 53.347 10.666ZM54.478 11.537C54.387 11.719 54.335 11.94 54.283 12.187C53.997 13.552 53.373 15.658 52.333 16.984C51.15 18.518 49.603 19.714 47.224 20.468L46.34 19.493C48.862 18.856 50.318 17.751 51.41 16.36C52.333 15.19 52.931 13.37 53.113 12.122C52.359 12.122 47.211 12.122 46.457 12.122C45.937 12.122 45.495 12.148 45.17 12.174V11.017C45.521 11.056 46.041 11.108 46.47 11.108C47.211 11.108 52.398 11.108 52.983 11.108C53.191 11.108 53.438 11.095 53.685 11.03L54.478 11.537ZM60.64 10.016C61.407 10.445 62.902 11.446 63.474 11.862L62.863 12.746C62.239 12.265 60.822 11.329 60.068 10.9L60.64 10.016ZM58.69 19.311C60.12 19.064 61.732 18.544 63.058 17.803C65.216 16.568 66.932 14.865 67.972 13.032L68.609 14.111C67.478 15.853 65.684 17.53 63.604 18.752C62.291 19.519 60.497 20.117 59.301 20.364L58.69 19.311ZM58.69 12.941C59.457 13.357 60.978 14.293 61.537 14.696L60.939 15.606C60.302 15.138 58.898 14.241 58.105 13.825L58.69 12.941ZM72.886 12.876C73.133 12.902 73.874 12.915 74.225 12.915C74.953 12.915 78.19 12.915 79.243 12.915C79.542 12.915 79.867 12.902 80.049 12.902C80.036 13.045 80.036 13.318 80.036 13.565C80.036 14.02 80.036 18.934 80.036 20.039C80.036 20.247 80.049 20.546 80.049 20.741H79.022C79.035 20.585 79.035 20.273 79.035 20C79.035 18.635 79.035 14.241 79.035 13.851C78.606 13.851 74.94 13.851 74.225 13.851C73.874 13.851 73.133 13.877 72.886 13.877V12.876ZM73.172 15.957C73.432 15.983 73.9 16.009 74.342 16.009C75.005 16.009 79.165 16.009 79.542 16.009V16.945C79.165 16.945 75.005 16.945 74.342 16.945C73.9 16.945 73.432 16.945 73.172 16.971V15.957ZM72.743 19.194C72.951 19.22 73.354 19.246 73.809 19.246C74.55 19.246 78.983 19.246 79.555 19.246V20.208C78.905 20.208 74.55 20.208 73.809 20.208C73.406 20.208 72.951 20.234 72.743 20.234V19.194ZM86.211 10.484C87.121 11.095 88.798 12.447 89.513 13.162L88.707 13.994C88.044 13.318 86.432 11.914 85.457 11.277L86.211 10.484ZM85.093 19.194C87.355 18.856 89.045 18.063 90.28 17.296C92.295 16.035 93.868 14.111 94.622 12.499L95.246 13.617C94.362 15.229 92.854 16.997 90.891 18.232C89.578 19.051 87.94 19.857 85.769 20.26L85.093 19.194ZM102.968 9.496H103.904V11.082C103.904 12.213 103.618 13.591 102.227 14.514C102.097 14.332 101.72 13.994 101.525 13.864C102.773 13.058 102.968 11.979 102.968 11.069V9.496ZM106.14 9.496H107.063V12.694C107.063 12.98 107.102 13.032 107.31 13.032C107.414 13.032 107.843 13.032 107.973 13.032C108.194 13.032 108.246 12.863 108.272 11.615C108.454 11.758 108.844 11.901 109.091 11.966C109.013 13.487 108.779 13.89 108.077 13.89C107.908 13.89 107.336 13.89 107.167 13.89C106.374 13.89 106.14 13.63 106.14 12.707V9.496ZM103.67 15.632C104.567 17.868 106.504 19.532 109.117 20.195C108.896 20.403 108.61 20.793 108.48 21.04C105.776 20.247 103.839 18.453 102.799 15.905L103.67 15.632ZM107.31 14.722H107.505L107.674 14.683L108.298 14.93C107.375 18.336 104.931 20.208 102.084 21.04C101.98 20.806 101.733 20.39 101.551 20.182C104.177 19.519 106.53 17.764 107.31 14.878V14.722ZM102.123 14.722H107.687V15.606H102.123V14.722ZM103.358 9.496H106.608V10.367H103.358V9.496ZM97.625 13.019H101.499V13.799H97.625V13.019ZM97.69 9.548H101.473V10.328H97.69V9.548ZM97.625 14.761H101.499V15.541H97.625V14.761ZM97.014 11.251H101.954V12.057H97.014V11.251ZM98.093 16.516H101.499V20.312H98.093V19.493H100.641V17.322H98.093V16.516ZM97.612 16.516H98.457V20.91H97.612V16.516ZM112.523 13.058H120.102V13.994H112.523V13.058ZM116.267 16.165H120.648V17.088H116.267V16.165ZM115.747 13.539H116.761V20.117L115.747 19.987V13.539ZM112.666 15.112L113.68 15.216C113.316 17.842 112.497 19.831 111.028 21.105C110.872 20.936 110.456 20.598 110.222 20.455C111.678 19.324 112.38 17.465 112.666 15.112ZM113.277 16.789C114.2 19.441 116.228 19.896 118.867 19.896C119.348 19.896 121.597 19.896 122.234 19.883C122.078 20.117 121.909 20.585 121.87 20.871H118.815C115.721 20.871 113.602 20.26 112.484 17.088L113.277 16.789ZM115.734 9.093H116.761V11.199H115.734V9.093ZM110.846 10.575H121.714V13.409H120.713V11.511H111.808V13.409H110.846V10.575Z" fill="#143867"/>
</svg>
