<svg width="180" height="28" viewBox="0 0 355 56" fill="none" xmlns="http://www.w3.org/2000/svg">
<path d="M24.7643 4.76924C17.195 5.6156 11.0789 11.8116 10.3443 19.3809C9.80137 25.002 12.1169 30.0961 16.0133 33.4176C17.227 34.4396 18.0414 35.8289 18.3448 37.346C18.5045 38.1125 19.1273 38.6714 19.9097 38.6714H33.5313C34.2339 38.6714 34.8567 38.2083 35.0643 37.5376C35.4476 36.2761 36.1822 34.3119 37.1882 33.4655C40.7333 30.4793 42.985 26.008 42.985 21.0097C42.985 11.3644 34.6332 3.68335 24.7643 4.76924ZM22.337 10.1827C22.337 10.1827 15.4863 14.159 15.3266 21.6485C15.3266 22.2553 14.8316 22.7503 14.2567 22.7503H14.2408C13.6499 22.7503 13.1868 22.2234 13.2028 21.6006C13.3944 12.7697 21.0116 8.3942 21.347 8.20257C21.858 7.91513 22.5127 8.12273 22.7842 8.66568C23.0556 9.20862 22.864 9.89529 22.353 10.1827H22.337Z" fill="white"/>
<path d="M33.8804 41.1791H19.636C19.0771 41.1791 18.614 41.6422 18.614 42.2012C18.614 42.7601 19.0611 43.2232 19.636 43.2232H33.8804C34.4393 43.2232 34.9024 42.776 34.9024 42.2012C34.9024 41.6263 34.4553 41.1791 33.8804 41.1791Z" fill="white"/>
<path d="M33.3877 44.8033H20.1334C19.5745 44.8033 19.1114 45.2664 19.1114 45.8253C19.1114 46.3842 19.5745 46.8473 20.1334 46.8473H33.3877C33.9466 46.8473 34.4097 46.3842 34.4097 45.8253C34.4097 45.2664 33.9626 44.8033 33.3877 44.8033Z" fill="white"/>
<path d="M32.8117 48.4111H20.6912C20.0684 48.4111 19.5574 48.8103 19.5574 49.3053C19.5574 49.8004 20.0684 50.1996 20.6912 50.1996H23.6295C23.9968 50.1996 24.3321 50.3433 24.5397 50.5669C24.9549 51.03 25.7853 51.3334 26.7594 51.3334C27.7335 51.3334 28.5639 51.014 28.9791 50.5669C29.1867 50.3274 29.5221 50.1996 29.8893 50.1996H32.8276C33.4504 50.1996 33.9614 49.8004 33.9614 49.3053C33.9614 48.8103 33.4504 48.4111 32.8276 48.4111H32.8117Z" fill="white"/>
<path d="M6.44689 20.9281L3.30099 20.5289C2.69417 20.4491 2.26301 19.8902 2.34285 19.2833C2.4227 18.6765 2.98161 18.2454 3.58843 18.3252L6.73433 18.7244C7.34115 18.8043 7.77231 19.3632 7.69247 19.97C7.61262 20.5768 7.05371 21.008 6.44689 20.9281Z" fill="white"/>
<path d="M4.29102 14.1401L6.94187 15.8967C7.45288 16.232 8.13955 16.0883 8.4749 15.5773C8.81025 15.0663 8.66652 14.3796 8.15552 14.0443L5.50466 12.2877C4.99365 11.9523 4.30699 12.096 3.97164 12.6071C3.63629 13.1181 3.78001 13.8047 4.29102 14.1401Z" fill="white"/>
<path d="M7.03633 26.1324L4.03416 27.1704C3.45928 27.362 2.82052 27.0586 2.62889 26.4837C2.43726 25.9088 2.74067 25.2701 3.31556 25.0784L6.31773 24.0405C6.89261 23.8488 7.53137 24.1522 7.723 24.7271C7.91463 25.302 7.61122 25.9408 7.03633 26.1324Z" fill="white"/>
<path d="M136.59 46.4807C133.314 49.7168 129.084 51.3348 123.897 51.3348C118.713 51.3348 114.481 49.7168 111.207 46.4807C107.929 43.2469 106.292 38.9745 106.292 33.6682V7.80298H115.88V33.7883C115.88 36.3225 116.613 38.3315 118.08 39.8177C119.547 41.3062 121.486 42.0504 123.897 42.0504C126.309 42.0504 128.25 41.3062 129.717 39.8177C131.184 38.3315 131.917 36.3225 131.917 33.7883V7.80298H141.505V33.6682C141.505 38.9745 139.866 43.2469 136.59 46.4807Z" fill="white"/>
<path d="M150.064 50.6117V7.80298H159.65V50.6117H150.064Z" fill="white"/>
<path d="M188.41 51.3345C182.3 51.3345 177.084 49.1748 172.764 44.8529C168.442 40.5334 166.282 35.3166 166.282 29.2071C166.282 23.0976 168.442 17.8807 172.764 13.5613C177.084 9.23941 182.3 7.07965 188.41 7.07965C192.791 7.07965 196.75 8.14423 200.287 10.2734C203.825 12.4048 206.538 15.2382 208.427 18.7758L199.986 23.359C197.414 18.6957 193.556 16.364 188.41 16.364C184.952 16.364 182.008 17.6311 179.578 20.163C177.145 22.6949 175.929 25.7096 175.929 29.2071C175.929 32.7046 177.145 35.7193 179.578 38.2512C182.008 40.7831 184.952 42.0502 188.41 42.0502C193.556 42.0502 197.414 39.7185 199.986 35.0552L208.427 39.6385C206.538 43.176 203.825 46.0094 200.287 48.1385C196.75 50.27 192.791 51.3345 188.41 51.3345Z" fill="white"/>
<path d="M240.985 50.6117L223.561 31.4378V50.6117H214.034V7.80298H223.561V25.7098L238.091 7.80298H249.848L232.966 28.3618L253.287 50.6117H240.985Z" fill="white"/>
<path d="M79.6308 39.9711C78.2394 40.4699 76.748 40.7559 75.187 40.7559C67.8952 40.7559 61.9647 34.8255 61.9647 27.5348C61.9647 20.2442 67.8952 14.3137 75.187 14.3137C82.4765 14.3137 88.407 20.2442 88.407 27.5348C88.407 28.4494 88.3133 29.3423 88.1355 30.2051C89.1394 29.926 90.1769 29.7287 91.2686 29.7287C93.6285 29.7287 95.8189 30.4418 97.6648 31.6403C97.908 30.3061 98.054 28.9381 98.054 27.5348C98.054 14.9249 87.797 4.66669 75.187 4.66669C62.5771 4.66669 52.3177 14.9249 52.3177 27.5348C52.3177 40.1448 62.5771 50.403 75.187 50.403C77.7089 50.403 80.1295 49.9765 82.3999 49.219C80.6017 47.1477 79.4735 44.4784 79.4735 41.5261C79.4735 40.9937 79.5619 40.4851 79.6308 39.9711Z" fill="white"/>
<path d="M91.1895 32.4897C86.2512 32.4897 82.2346 36.5075 82.2346 41.4468C82.2346 46.3862 86.2512 50.404 91.1895 50.404C96.1277 50.404 100.147 46.3862 100.147 41.4468C100.147 36.5075 96.1277 32.4897 91.1895 32.4897Z" fill="white"/>
<path d="M260.287 24.7022V20.273C260.287 19.5226 260.894 18.9003 261.626 18.9003H294.028C294.028 18.9003 299.666 22.4693 299.47 23.0367C297.418 29.1132 294.509 34.4759 290.745 39.1431C286.177 44.8901 281.003 48.9167 275.204 51.2411C274.651 51.4608 274.026 51.2777 273.669 50.8019L270.422 46.6472C269.869 45.9517 270.136 44.9084 270.939 44.5423C279.629 40.4791 285.606 34.9883 288.853 28.0516C289.281 27.1365 288.657 26.0566 287.658 26.0566H261.626C260.894 26.0566 260.287 25.4343 260.287 24.6839V24.7022ZM265.23 13.0983V8.88869C265.23 8.13828 265.836 7.51599 266.568 7.51599H291.869C292.6 7.51599 293.207 8.13828 293.207 8.88869V13.0983C293.207 13.8487 292.6 14.471 291.869 14.471H266.568C265.836 14.471 265.23 13.8487 265.23 13.0983Z" fill="white"/>
<path d="M306.162 37.7898C309.034 35.1725 311.728 31.8048 314.244 27.6867C314.637 27.0461 315.458 26.8265 316.082 27.2292L320.418 30.0112C321.024 30.3955 321.239 31.2375 320.882 31.8781C318.348 36.3439 315.315 40.2973 311.782 43.7382C311.265 44.2507 310.426 44.2324 309.909 43.7016L306.09 39.7848C305.537 39.2174 305.591 38.3206 306.162 37.7898ZM308.249 16.156H322.844C323.576 16.156 324.183 15.5338 324.183 14.7833V7.18772C324.183 6.43731 324.789 5.81502 325.521 5.81502H330.659C331.391 5.81502 331.998 6.43731 331.998 7.18772V14.7833C331.998 15.5338 332.604 16.156 333.336 16.156H347.11C347.842 16.156 348.448 16.7783 348.448 17.5287V21.958C348.448 22.7084 347.842 23.3307 347.11 23.3307H333.336C332.604 23.3307 331.998 23.953 331.998 24.7034V43.7931C331.998 48.5701 329.464 50.9678 324.379 50.9678H321.488C320.882 50.9678 320.346 50.5468 320.204 49.9611L318.865 44.8913C318.634 44.0127 319.276 43.1525 320.15 43.1525C322.363 43.1525 324.165 41.3039 324.165 39.0344V24.6851C324.165 23.9347 323.558 23.3124 322.827 23.3124H308.231C307.5 23.3124 306.893 22.6901 306.893 21.9397V17.5104C306.893 16.76 307.5 16.1377 308.231 16.1377L308.249 16.156ZM335.566 29.8831L339.242 27.0461C339.795 26.6252 340.58 26.6801 341.044 27.2109C344.023 30.6152 346.807 34.4221 349.394 38.6318C349.787 39.2723 349.608 40.1143 348.984 40.5169L344.666 43.4271C344.023 43.848 343.185 43.6467 342.792 42.9695C340.401 38.8514 337.903 35.1359 335.316 31.7865C334.852 31.1826 334.959 30.3223 335.566 29.8465V29.8831ZM337.671 6.83997L338.849 5.92483C339.402 5.50387 340.169 5.57708 340.633 6.08956L343.417 9.20102C343.916 9.7684 343.881 10.6469 343.31 11.1594L342.079 12.2759C341.508 12.7883 340.651 12.7151 340.169 12.1294L337.44 8.81666C336.94 8.21267 337.047 7.29754 337.654 6.83997H337.671ZM344.398 5.97974L345.611 4.97309C346.165 4.51553 346.985 4.57043 347.467 5.13782L350.018 8.13946C350.518 8.72515 350.447 9.62198 349.858 10.1162L348.645 11.1228C348.092 11.5804 347.271 11.5255 346.789 10.9581L344.238 7.95643C343.738 7.37075 343.809 6.47391 344.398 5.97974Z" fill="white"/>
</svg>
