<svg width="152" height="24" viewBox="0 0 152 24" fill="none" xmlns="http://www.w3.org/2000/svg">
<path d="M10.6131 2.04395C7.36906 2.40668 4.74786 5.06209 4.43305 8.30608C4.20036 10.7151 5.19272 12.8983 6.86262 14.3218C7.38275 14.7598 7.73179 15.3553 7.86182 16.0054C7.93026 16.3339 8.19717 16.5735 8.53252 16.5735H14.3703C14.6715 16.5735 14.9384 16.375 15.0273 16.0875C15.1916 15.5469 15.5064 14.7051 15.9376 14.3424C17.4569 13.0626 18.4219 11.1463 18.4219 9.00415C18.4219 4.87046 14.8426 1.57857 10.6131 2.04395ZM9.57278 4.36402C9.57278 4.36402 6.63677 6.06814 6.56833 9.27791C6.56833 9.53798 6.35617 9.75013 6.10979 9.75013H6.10295C5.84973 9.75013 5.65125 9.52429 5.6581 9.25738C5.74022 5.47272 9.00474 3.59751 9.14847 3.51538C9.36747 3.39219 9.64807 3.48116 9.76441 3.71385C9.88076 3.94654 9.79863 4.24083 9.57963 4.36402H9.57278Z" fill="white"/>
<path d="M14.5203 17.6484H8.41555C8.17601 17.6484 7.97754 17.8469 7.97754 18.0864C7.97754 18.326 8.16917 18.5245 8.41555 18.5245H14.5203C14.7598 18.5245 14.9583 18.3328 14.9583 18.0864C14.9583 17.8401 14.7666 17.6484 14.5203 17.6484Z" fill="white"/>
<path d="M14.3088 19.2012H8.62844C8.3889 19.2012 8.19043 19.3996 8.19043 19.6392C8.19043 19.8787 8.3889 20.0772 8.62844 20.0772H14.3088C14.5484 20.0772 14.7468 19.8787 14.7468 19.6392C14.7468 19.3996 14.5552 19.2012 14.3088 19.2012Z" fill="white"/>
<path d="M14.0622 20.748H8.86775C8.60084 20.748 8.38184 20.9191 8.38184 21.1313C8.38184 21.3435 8.60084 21.5146 8.86775 21.5146H10.127C10.2844 21.5146 10.4281 21.5762 10.5171 21.672C10.6951 21.8704 11.0509 22.0005 11.4684 22.0005C11.8859 22.0005 12.2418 21.8636 12.4197 21.672C12.5087 21.5693 12.6524 21.5146 12.8098 21.5146H14.0691C14.336 21.5146 14.555 21.3435 14.555 21.1313C14.555 20.9191 14.336 20.748 14.0691 20.748H14.0622Z" fill="white"/>
<path d="M2.76295 8.96924L1.41471 8.79814C1.15465 8.76392 0.969862 8.52439 1.00408 8.26432C1.0383 8.00426 1.27784 7.81947 1.5379 7.85369L2.88614 8.02479C3.14621 8.05901 3.33099 8.29854 3.29677 8.55861C3.26255 8.81867 3.02302 9.00346 2.76295 8.96924Z" fill="white"/>
<path d="M1.83855 6.06001L2.97463 6.81283C3.19363 6.95655 3.48791 6.89496 3.63164 6.67596C3.77536 6.45695 3.71376 6.16267 3.49476 6.01895L2.35868 5.26612C2.13968 5.1224 1.84539 5.18399 1.70167 5.403C1.55795 5.622 1.61954 5.91629 1.83855 6.06001Z" fill="white"/>
<path d="M3.01603 11.1995L1.72939 11.6443C1.48301 11.7264 1.20925 11.5964 1.12713 11.35C1.045 11.1036 1.17503 10.8299 1.42141 10.7478L2.70806 10.3029C2.95444 10.2208 3.22819 10.3508 3.31032 10.5972C3.39244 10.8436 3.26241 11.1173 3.01603 11.1995Z" fill="white"/>
<path d="M58.5385 19.9199C57.1344 21.3068 55.3216 22.0003 53.0989 22.0003C50.8772 22.0003 49.0634 21.3068 47.6603 19.9199C46.2552 18.534 45.5537 16.703 45.5537 14.4288V3.34375H49.6629V14.4803C49.6629 15.5664 49.9768 16.4274 50.6057 17.0643C51.2345 17.7023 52.0653 18.0212 53.0989 18.0212C54.1325 18.0212 54.9642 17.7023 55.5931 17.0643C56.2219 16.4274 56.5358 15.5664 56.5358 14.4803V3.34375H60.6451V14.4288C60.6451 16.703 59.9425 18.534 58.5385 19.9199Z" fill="white"/>
<path d="M64.3135 21.6904V3.34375H68.4217V21.6904H64.3135Z" fill="white"/>
<path d="M80.7469 22.0005C78.1285 22.0005 75.8927 21.0749 74.0415 19.2227C72.1893 17.3715 71.2637 15.1357 71.2637 12.5174C71.2637 9.89902 72.1893 7.66322 74.0415 5.81201C75.8927 3.95979 78.1285 3.03418 80.7469 3.03418C82.6243 3.03418 84.3211 3.49043 85.8372 4.40291C87.3533 5.3164 88.5161 6.53069 89.3256 8.04679L85.708 10.0111C84.6057 8.01248 82.9524 7.01318 80.7469 7.01318C79.2651 7.01318 78.0033 7.55623 76.9617 8.64133C75.919 9.72641 75.3981 11.0184 75.3981 12.5174C75.3981 14.0163 75.919 15.3083 76.9617 16.3934C78.0033 17.4785 79.2651 18.0216 80.7469 18.0216C82.9524 18.0216 84.6057 17.0223 85.708 15.0237L89.3256 16.988C88.5161 18.5041 87.3533 19.7183 85.8372 20.6308C84.3211 21.5443 82.6243 22.0005 80.7469 22.0005Z" fill="white"/>
<path d="M103.28 21.6904L95.8125 13.4729V21.6904H91.7295V3.34375H95.8125V11.0181L102.039 3.34375H107.078L99.8429 12.1547L108.552 21.6904H103.28Z" fill="white"/>
<path d="M34.1275 17.1304C33.5312 17.3442 32.892 17.4668 32.223 17.4668C29.098 17.4668 26.5563 14.9252 26.5563 11.8006C26.5563 8.67608 29.098 6.13445 32.223 6.13445C35.3471 6.13445 37.8887 8.67608 37.8887 11.8006C37.8887 12.1926 37.8486 12.5753 37.7724 12.945C38.2026 12.8254 38.6473 12.7409 39.1151 12.7409C40.1265 12.7409 41.0652 13.0465 41.8564 13.5601C41.9606 12.9883 42.0232 12.402 42.0232 11.8006C42.0232 6.39638 37.6273 2 32.223 2C26.8188 2 22.4219 6.39639 22.4219 11.8006C22.4219 17.2049 26.8188 21.6013 32.223 21.6013C33.3038 21.6013 34.3412 21.4185 35.3143 21.0939C34.5436 20.2062 34.0601 19.0622 34.0601 17.7969C34.0601 17.5687 34.0979 17.3507 34.1275 17.1304Z" fill="white"/>
<path d="M39.081 13.9238C36.9646 13.9238 35.2432 15.6457 35.2432 17.7626C35.2432 19.8795 36.9646 21.6014 39.081 21.6014C41.1974 21.6014 42.9197 19.8795 42.9197 17.7626C42.9197 15.6457 41.1974 13.9238 39.081 13.9238Z" fill="white"/>
<path d="M111.552 10.5862V8.68798C111.552 8.36638 111.812 8.09968 112.125 8.09968H126.012C126.012 8.09968 128.428 9.62926 128.344 9.87243C127.465 12.4766 126.218 14.7749 124.605 16.7752C122.647 19.2382 120.43 20.9639 117.944 21.96C117.707 22.0542 117.44 21.9757 117.287 21.7718L115.895 19.9912C115.658 19.6931 115.773 19.246 116.117 19.0891C119.841 17.3478 122.403 14.9946 123.794 12.0217C123.978 11.6295 123.71 11.1667 123.282 11.1667H112.125C111.812 11.1667 111.552 10.9 111.552 10.5784V10.5862ZM113.67 5.61313V3.809C113.67 3.4874 113.93 3.2207 114.243 3.2207H125.087C125.4 3.2207 125.66 3.4874 125.66 3.809V5.61313C125.66 5.93473 125.4 6.20143 125.087 6.20143H114.243C113.93 6.20143 113.67 5.93473 113.67 5.61313Z" fill="white"/>
<path d="M131.212 16.1956C132.443 15.0739 133.598 13.6306 134.676 11.8657C134.844 11.5912 135.196 11.4971 135.464 11.6696L137.322 12.8619C137.582 13.0267 137.674 13.3875 137.521 13.662C136.435 15.576 135.135 17.2703 133.621 18.7449C133.399 18.9646 133.04 18.9567 132.818 18.7292L131.182 17.0506C130.944 16.8075 130.967 16.4231 131.212 16.1956ZM132.107 6.92401H138.362C138.675 6.92401 138.935 6.65731 138.935 6.33571V3.08044C138.935 2.75884 139.195 2.49214 139.509 2.49214H141.711C142.025 2.49214 142.285 2.75884 142.285 3.08044V6.33571C142.285 6.65731 142.545 6.92401 142.858 6.92401H148.761C149.075 6.92401 149.335 7.19071 149.335 7.51231V9.41056C149.335 9.73217 149.075 9.99886 148.761 9.99886H142.858C142.545 9.99886 142.285 10.2656 142.285 10.5872V18.7685C142.285 20.8158 141.199 21.8433 139.019 21.8433H137.781C137.521 21.8433 137.291 21.6629 137.23 21.4119L136.657 19.2391C136.557 18.8626 136.833 18.4939 137.207 18.4939C138.155 18.4939 138.928 17.7017 138.928 16.729V10.5793C138.928 10.2577 138.668 9.99102 138.354 9.99102H132.099C131.786 9.99102 131.526 9.72432 131.526 9.40272V7.50447C131.526 7.18286 131.786 6.91617 132.099 6.91617L132.107 6.92401ZM143.814 12.807L145.389 11.5912C145.626 11.4108 145.963 11.4343 146.162 11.6618C147.439 13.1208 148.632 14.7523 149.74 16.5565C149.909 16.831 149.832 17.1918 149.564 17.3644L147.714 18.6116C147.439 18.792 147.079 18.7057 146.911 18.4155C145.886 16.6506 144.816 15.0583 143.707 13.6228C143.508 13.3639 143.554 12.9953 143.814 12.7913V12.807ZM144.716 2.93141L145.221 2.53921C145.458 2.35879 145.787 2.39017 145.986 2.6098L147.179 3.94328C147.393 4.18645 147.377 4.56296 147.133 4.78259L146.605 5.26108C146.36 5.48071 145.993 5.44933 145.787 5.19833L144.617 3.77856C144.403 3.51971 144.449 3.12751 144.709 2.93141H144.716ZM147.599 2.56274L148.119 2.13132C148.356 1.93522 148.708 1.95875 148.914 2.20191L150.008 3.48833C150.222 3.73934 150.191 4.1237 149.939 4.33548L149.419 4.76691C149.182 4.96301 148.83 4.93947 148.624 4.69631L147.53 3.40989C147.316 3.15888 147.347 2.77453 147.599 2.56274Z" fill="white"/>
</svg>
