<!--?xml version="1.0" encoding="utf-8"?-->
<!-- Generator: Adobe Illustrator 18.1.1, SVG Export Plug-In . SVG Version: 6.00 Build 0)  -->

<svg version="1.1" id="_x32_" xmlns="http://www.w3.org/2000/svg" xmlns:xlink="http://www.w3.org/1999/xlink" x="0px" y="0px" viewBox="0 0 512 512" style="opacity: 1;" xml:space="preserve">
<style type="text/css">
	.st0{fill:#4B4B4B;}
</style>
<g>
	<path class="st0" d="M378.413,0H208.297h-13.176l-9.314,9.314L57.02,138.102l-9.314,9.314v13.176v265.514
		c0,47.36,38.528,85.895,85.896,85.895h244.811c47.353,0,85.881-38.535,85.881-85.895V85.896C464.294,38.528,425.766,0,378.413,0z
		 M432.497,426.105c0,29.877-24.214,54.091-54.084,54.091H133.602c-29.878,0-54.092-24.214-54.092-54.091V160.591h83.717
		c24.885,0,45.07-20.178,45.07-45.07V31.804h170.116c29.87,0,54.084,24.214,54.084,54.092V426.105z" style="fill: rgb(75, 75, 75);"></path>
	<path class="st0" d="M176.563,251.968c-5.704,0-9.914,4.078-9.914,10.592v50.803c0,11.409-5.027,15.62-12.631,15.62
		c-2.988,0-6.116-0.95-8.288-2.444c-2.988-2.039-5.16-2.989-7.603-2.989c-5.028,0-8.826,3.666-8.826,8.42
		c0,2.444,0.95,4.888,2.709,6.927c3.805,4.35,12.77,7.743,21.324,7.743c21.191,0,33.277-11.954,33.277-34.639V262.56
		C186.61,256.046,182.407,251.968,176.563,251.968z" style="fill: rgb(75, 75, 75);"></path>
	<path class="st0" d="M251.957,252.785h-28.523c-5.432,0-8.692,3.533-8.692,8.825v73.754c0,6.388,4.21,10.599,10.048,10.599
		c5.711,0,9.914-4.21,9.914-10.599v-22.406c0-0.545,0.279-0.817,0.824-0.817h16.43c20.102,0,32.195-12.226,32.195-29.612
		C284.152,264.871,272.199,252.785,251.957,252.785z M250.735,294.888h-15.208c-0.545,0-0.824-0.272-0.824-0.81v-23.23
		c0-0.545,0.279-0.816,0.824-0.816h15.208c8.42,0,13.448,5.027,13.448,12.498C264.183,290,259.156,294.888,250.735,294.888z" style="fill: rgb(75, 75, 75);"></path>
	<path class="st0" d="M361.851,293.806h-19.012c-5.16,0-8.42,3.121-8.42,7.876c0,4.755,3.26,7.876,8.42,7.876h6.249
		c0.545,0,0.81,0.272,0.81,0.816c0,3.533-0.265,6.654-1.082,9.098c-1.906,5.844-7.743,9.51-14.809,9.51
		c-8.009,0-13.036-3.938-15.068-10.187c-1.089-3.393-1.494-7.876-1.494-19.83c0-11.953,0.405-16.296,1.494-19.696
		c2.032-6.382,6.926-10.32,14.802-10.32c5.977,0,10.46,1.899,13.993,6.786c2.709,3.805,5.432,4.895,8.826,4.895
		c5.027,0,9.097-3.666,9.097-8.965c0-2.171-0.677-4.078-1.767-5.977c-4.887-8.287-15.207-14.397-30.149-14.397
		c-16.436,0-29.199,7.471-33.962,22.412c-2.038,6.515-2.576,11.682-2.576,25.262c0,13.581,0.538,18.74,2.576,25.262
		c4.762,14.942,17.526,22.413,33.962,22.413c16.437,0,28.928-8.288,33.683-23.09c1.634-5.16,2.311-12.77,2.311-20.919v-0.95
		C369.733,296.654,366.878,293.806,361.851,293.806z" style="fill: rgb(75, 75, 75);"></path>
</g>
</svg>
