<!--?xml version="1.0" encoding="utf-8"?-->
<!-- Generator: Adobe Illustrator 18.1.1, SVG Export Plug-In . SVG Version: 6.00 Build 0)  -->

<svg version="1.1" id="_x32_" xmlns="http://www.w3.org/2000/svg" xmlns:xlink="http://www.w3.org/1999/xlink" x="0px" y="0px" viewBox="0 0 512 512" style="opacity: 1;" xml:space="preserve">
<style type="text/css">
	.st0{fill:#4B4B4B;}
</style>
<g>
	<path class="st0" d="M378.413,0H208.297h-13.182L185.8,9.314L57.02,138.102l-9.314,9.314v13.176v265.514
		c0,47.36,38.528,85.895,85.896,85.895h244.811c47.353,0,85.881-38.535,85.881-85.895V85.896C464.294,38.528,425.766,0,378.413,0z
		 M432.497,426.105c0,29.877-24.214,54.091-54.084,54.091H133.602c-29.884,0-54.098-24.214-54.098-54.091V160.591h83.716
		c24.885,0,45.077-20.178,45.077-45.07V31.804h170.116c29.87,0,54.084,24.214,54.084,54.092V426.105z" style="fill: rgb(75, 75, 75);"></path>
	<path class="st0" d="M165.287,252.785h-28.515c-5.432,0-8.7,3.533-8.7,8.825v73.754c0,6.388,4.218,10.599,10.055,10.599
		c5.697,0,9.914-4.21,9.914-10.599v-22.406c0-0.545,0.265-0.817,0.81-0.817h16.436c20.109,0,32.188-12.226,32.188-29.612
		C197.475,264.871,185.521,252.785,165.287,252.785z M164.072,294.888h-15.221c-0.545,0-0.81-0.272-0.81-0.81v-23.23
		c0-0.545,0.265-0.816,0.81-0.816h15.221c8.42,0,13.448,5.027,13.448,12.498C177.519,290,172.492,294.888,164.072,294.888z" style="fill: rgb(75, 75, 75);"></path>
	<path class="st0" d="M275.187,251.968c-5.432,0-9.104,3.532-9.104,9.642v50.531h-0.545l-28.25-50.39
		c-3.658-6.389-7.471-9.782-13.168-9.782c-6.801,0-11.144,4.622-11.144,11.954v72.398c0,6.109,3.673,9.643,9.105,9.643
		c5.432,0,9.09-3.534,9.09-9.643v-50.398h0.545l28.25,50.258c3.673,6.382,7.471,9.782,13.182,9.782
		c6.787,0,11.144-4.622,11.144-11.954V261.61C284.292,255.5,280.619,251.968,275.187,251.968z" style="fill: rgb(75, 75, 75);"></path>
	<path class="st0" d="M366.878,293.806h-19.019c-5.153,0-8.421,3.121-8.421,7.876c0,4.755,3.268,7.876,8.421,7.876h6.256
		c0.544,0,0.809,0.272,0.809,0.816c0,3.533-0.265,6.654-1.089,9.098c-1.899,5.844-7.736,9.51-14.802,9.51
		c-8.016,0-13.043-3.938-15.068-10.187c-1.09-3.393-1.494-7.876-1.494-19.83c0-11.953,0.405-16.296,1.494-19.696
		c2.025-6.382,6.926-10.32,14.802-10.32c5.976,0,10.459,1.899,13.992,6.786c2.709,3.805,5.432,4.895,8.826,4.895
		c5.027,0,9.091-3.666,9.091-8.965c0-2.171-0.671-4.078-1.76-5.977c-4.888-8.287-15.208-14.397-30.149-14.397
		c-16.437,0-29.2,7.471-33.962,22.412c-2.039,6.515-2.584,11.682-2.584,25.262c0,13.581,0.545,18.74,2.584,25.262
		c4.762,14.942,17.525,22.413,33.962,22.413c16.436,0,28.92-8.288,33.682-23.09c1.634-5.16,2.304-12.77,2.304-20.919v-0.95
		C374.754,296.654,371.905,293.806,366.878,293.806z" style="fill: rgb(75, 75, 75);"></path>
</g>
</svg>
