<svg width="136" height="136" viewBox="0 0 136 136" fill="none" xmlns="http://www.w3.org/2000/svg">
<g id="Ring">
<path id="Line" d="M60.0006 8C67.88 8 75.6821 9.55195 82.9616 12.5672C90.2412 15.5825 96.8555 20.0021 102.427 25.5736C107.999 31.1451 112.418 37.7595 115.433 45.039C118.449 52.3185 120.001 60.1207 120.001 68C120.001 75.8793 118.449 83.6815 115.433 90.961C112.418 98.2406 107.999 104.855 102.427 110.426C96.8555 115.998 90.2412 120.417 82.9616 123.433C75.6821 126.448 67.8799 128 60.0006 128C52.1213 128 44.3191 126.448 37.0396 123.433C29.7601 120.417 23.1457 115.998 17.5742 110.426" stroke="#00C3CF" stroke-width="15" stroke-linecap="square" stroke-linejoin="round"/>
</g>
</svg>
