<svg width="50" height="36" viewBox="0 0 50 36" fill="none" xmlns="http://www.w3.org/2000/svg">
<g clip-path="url(#clip0_3125_15951)">
<path d="M47 3V33H3V3H47ZM47 0H3C1.35 0 0 1.35 0 3V33C0 34.65 1.35 36 3 36H47C48.65 36 50 34.65 50 33V3C50 1.35 48.65 0 47 0Z" fill="#505050"/>
<path d="M33 8.25H3V9.25H33V8.25Z" fill="#505050"/>
<path d="M33 14.42H3V15.42H33V14.42Z" fill="#505050"/>
<path d="M33 20.58H3V21.58H33V20.58Z" fill="#505050"/>
<path d="M33 26.75H3V27.75H33V26.75Z" fill="#505050"/>
<path d="M17.9199 3H16.9199V33H17.9199V3Z" fill="#505050"/>
<path d="M34.0801 3H31.0801V33H34.0801V3Z" fill="#505050"/>
<path d="M36.97 21.62H35V32H36.97V21.62Z" fill="#505050"/>
<path d="M39.2298 16.87H37.2598V32H39.2298V16.87Z" fill="#505050"/>
<path d="M41.49 12H39.52V32H41.49V12Z" fill="#505050"/>
<path d="M43.74 6H41.77V32H43.74V6Z" fill="#505050"/>
<path d="M45.9998 17.5H44.0298V32H45.9998V17.5Z" fill="#505050"/>
</g>
<defs>
<clipPath id="clip0_3125_15951">
<rect width="50" height="36" fill="white"/>
</clipPath>
</defs>
</svg>
