<svg width="50" height="36" viewBox="0 0 50 36" fill="none" xmlns="http://www.w3.org/2000/svg">
<g clip-path="url(#clip0_3125_16003)">
<path d="M47 3V33H3V3H47ZM47 0H3C1.35 0 0 1.35 0 3V33C0 34.65 1.35 36 3 36H47C48.65 36 50 34.65 50 33V3C50 1.35 48.65 0 47 0Z" fill="#505050"/>
<path d="M12.8 21.62H6V32H12.8V21.62Z" fill="#505050"/>
<path d="M20.5998 16.87H13.7998V32H20.5998V16.87Z" fill="#505050"/>
<path d="M28.4001 12H21.6001V32H28.4001V12Z" fill="#505050"/>
<path d="M36.1999 6H29.3999V32H36.1999V6Z" fill="#505050"/>
<path d="M44.0002 17.5H37.2002V32H44.0002V17.5Z" fill="#505050"/>
</g>
<defs>
<clipPath id="clip0_3125_16003">
<rect width="50" height="36" fill="white"/>
</clipPath>
</defs>
</svg>
