<svg width="124" height="26" viewBox="0 0 124 26" fill="none" xmlns="http://www.w3.org/2000/svg">
<rect x="0.5" y="0.5" width="123" height="25" rx="3.5" fill="#F2F7FF"/>
<rect x="0.5" y="0.5" width="123" height="25" rx="3.5" stroke="#143867"/>
<mask id="path-2-inside-1_2646_8797" fill="white">
<path d="M8 8.5H26V20C26 21.1046 25.1046 22 24 22H10C8.89543 22 8 21.1046 8 20V8.5Z"/>
</mask>
<path d="M8 8.5H26V20C26 21.1046 25.1046 22 24 22H10C8.89543 22 8 21.1046 8 20V8.5Z" fill="white"/>
<path d="M8 8.5H26H8ZM27 20C27 21.6569 25.6569 23 24 23H10C8.34315 23 7 21.6569 7 20H9C9 20.5523 9.44772 21 10 21H24C24.5523 21 25 20.5523 25 20H27ZM10 23C8.34315 23 7 21.6569 7 20V8.5H9V20C9 20.5523 9.44772 21 10 21V23ZM27 8.5V20C27 21.6569 25.6569 23 24 23V21C24.5523 21 25 20.5523 25 20V8.5H27Z" fill="#999999" mask="url(#path-2-inside-1_2646_8797)"/>
<mask id="path-4-inside-2_2646_8797" fill="white">
<path d="M10 8H14V21H10V8Z"/>
</mask>
<path d="M10 8H14V21H10V8Z" fill="white"/>
<path d="M13 8V21H15V8H13Z" fill="#E0E0E0" mask="url(#path-4-inside-2_2646_8797)"/>
<path d="M8 6C8 4.89543 8.89543 4 10 4H24C25.1046 4 26 4.89543 26 6V8.5H8V6Z" fill="#143867"/>
<path d="M32.944 17.628C33.028 17.436 33.052 17.268 33.052 17.04C33.052 16.284 33.052 11.316 33.052 10.176C33.052 9.852 33.004 9.312 32.956 9.084H34.132C34.096 9.372 34.048 9.828 34.048 10.164C34.048 11.304 34.048 16.368 34.048 16.98C36.352 16.392 39.124 14.82 40.624 12.888L41.164 13.728C39.604 15.66 37.132 17.136 34.132 18.012C34.012 18.048 33.82 18.108 33.628 18.216L32.944 17.628ZM43.552 13.668C45.628 13.116 47.452 12.264 48.784 11.436C50.044 10.644 51.244 9.612 52.072 8.604L52.876 9.36C51.844 10.428 50.584 11.436 49.18 12.312C47.86 13.128 45.952 14.004 44.02 14.604L43.552 13.668ZM48.592 11.928L49.624 11.616V17.1C49.624 17.544 49.648 18.144 49.708 18.372H48.52C48.556 18.144 48.592 17.544 48.592 17.1V11.928ZM65.932 9.9C65.836 10.008 65.692 10.188 65.608 10.32C65.128 11.136 63.988 12.684 62.62 13.632L61.816 12.996C62.932 12.36 64.06 11.064 64.444 10.32C63.604 10.32 58.18 10.32 57.604 10.32C57.16 10.32 56.716 10.344 56.248 10.38V9.3C56.668 9.36 57.16 9.408 57.604 9.408C58.18 9.408 63.784 9.408 64.504 9.408C64.732 9.408 65.164 9.372 65.332 9.324L65.932 9.9ZM61.132 11.472C61.132 14.724 60.844 16.92 57.784 18.456L56.908 17.736C57.232 17.628 57.652 17.424 57.988 17.196C59.836 16.056 60.1 14.352 60.1 12.348C60.1 12.06 60.1 11.796 60.052 11.472H61.132ZM73.48 8.4C73.432 8.772 73.42 9.048 73.42 9.3C73.42 9.576 73.42 10.476 73.42 10.896H72.4C72.4 10.428 72.4 9.576 72.4 9.3C72.4 9.048 72.388 8.772 72.34 8.4H73.48ZM77.572 10.728C77.512 10.896 77.44 11.22 77.404 11.448C77.236 12.408 76.888 13.908 76.216 15.048C75.328 16.62 73.672 17.844 71.476 18.444L70.696 17.556C71.092 17.484 71.548 17.364 71.932 17.22C73.144 16.824 74.452 15.936 75.196 14.796C75.844 13.776 76.216 12.324 76.324 11.304H69.628C69.628 11.796 69.628 13.08 69.628 13.452C69.628 13.656 69.64 13.98 69.664 14.16H68.62C68.656 13.956 68.668 13.632 68.668 13.392C68.668 13.008 68.668 11.7 68.668 11.28C68.668 11.028 68.668 10.62 68.62 10.368C68.968 10.392 69.328 10.416 69.748 10.416H76.108C76.552 10.416 76.768 10.368 76.924 10.32L77.572 10.728ZM83.272 16.944C83.272 16.272 83.272 10.968 83.272 9.972C83.272 9.624 83.248 9.096 83.188 8.712H84.364C84.316 9.084 84.28 9.6 84.28 9.972C84.28 11.832 84.292 16.38 84.292 16.944C84.292 17.328 84.316 17.976 84.364 18.372H83.2C83.26 17.988 83.272 17.388 83.272 16.944ZM84.064 11.868C85.648 12.324 88.072 13.248 89.404 13.896L88.984 14.916C87.616 14.184 85.372 13.332 84.064 12.924V11.868ZM96.28 8.976H102.22V9.84H96.28V8.976ZM101.836 8.976H102.76C102.76 8.976 102.748 9.36 102.748 9.492C102.604 15.648 102.46 17.688 102.004 18.3C101.728 18.672 101.464 18.78 101.056 18.84C100.66 18.888 100 18.876 99.364 18.828C99.34 18.564 99.232 18.168 99.076 17.904C99.772 17.964 100.408 17.964 100.672 17.964C100.9 17.976 101.02 17.928 101.152 17.76C101.536 17.304 101.704 15.144 101.836 9.216V8.976ZM91.816 11.784L96.892 10.716L97.048 11.52L91.984 12.612L91.816 11.784ZM93.28 8.268H94.168V15.324C94.168 15.756 94.216 15.816 94.54 15.816C94.684 15.816 95.416 15.816 95.62 15.816C95.92 15.816 95.968 15.516 96.016 14.1C96.208 14.268 96.568 14.424 96.82 14.496C96.724 16.164 96.508 16.68 95.692 16.68C95.488 16.68 94.588 16.68 94.408 16.68C93.508 16.68 93.28 16.38 93.28 15.312V8.268ZM98.416 9.36H99.304C99.232 13.308 99.088 17.076 95.824 19.008C95.692 18.78 95.404 18.468 95.176 18.3C98.284 16.572 98.344 13.02 98.416 9.36ZM105.952 13.884H113.476V18.912H112.564V14.664H106.828V18.96H105.952V13.884ZM106.492 15.816H112.936V16.512H106.492V15.816ZM104.8 8.988H109.108V9.708H104.8V8.988ZM110.02 8.988H114.616V9.708H110.02V8.988ZM104.44 10.764H109.312V11.508H104.44V10.764ZM109.78 10.764H115V11.508H109.78V10.764ZM106.48 17.736H112.912V18.516H106.48V17.736ZM106.648 7.92H107.5V9.696C107.5 11.1 107.188 12.984 104.836 14.28C104.704 14.1 104.428 13.812 104.236 13.668C106.468 12.552 106.648 10.86 106.648 9.696V7.92ZM111.808 7.92H112.672V9.84C112.672 11.136 112.324 12.792 110.02 13.872C109.9 13.668 109.636 13.392 109.444 13.236C111.604 12.336 111.808 10.872 111.808 9.828V7.92ZM112.72 10.932C113.164 12.072 114.088 13.056 115.3 13.488C115.096 13.644 114.844 13.956 114.724 14.172C113.452 13.62 112.492 12.48 112.012 11.136L112.72 10.932ZM106.54 11.964L107.092 11.436C107.788 11.904 108.712 12.564 109.192 12.972L108.604 13.584C108.148 13.164 107.236 12.468 106.54 11.964Z" fill="#143867"/>
</svg>
